<svg width="30" height="30" viewBox="0 0 30 30" fill="none" xmlns="http://www.w3.org/2000/svg">
<path d="M17.2745 2.53516C17.2184 2.53533 17.1622 2.53598 17.1057 2.53721C14.4016 2.59539 11.4479 3.92512 9.56977 5.74932C7.11088 8.13748 4.18348 12.087 2.6032 15.8888C1.81301 17.7897 1.36277 19.6517 1.43543 21.2387C1.50809 22.8257 2.06373 24.1208 3.34207 25.0793C4.26258 25.7695 5.02008 25.723 5.96789 25.2387C6.91564 24.7542 7.964 23.7548 9.04014 22.5782C11.1924 20.225 13.421 17.1611 16.1304 16.2541C19.7512 15.0421 21.8889 14.2367 23.216 13.5128C24.5429 12.7889 25.0553 12.1964 25.6031 11.2229C26.0309 10.4627 26.0932 9.69555 25.8978 8.88607C25.7024 8.07666 25.2305 7.23566 24.5824 6.4474C23.2859 4.87105 21.2863 3.52088 19.6777 2.9316C18.9306 2.65797 18.1161 2.53375 17.2744 2.53527L17.2745 2.53516ZM17.4748 3.95664C18.7175 3.95061 19.9442 4.21082 20.9021 4.93381C23.6885 7.03703 25.9678 8.3885 24.0882 11.4893C22.2088 14.5902 13.7169 14.8977 11.3406 12.6647C11.2431 12.0438 10.6015 7.30627 11.9368 5.53656C12.6704 4.95022 15.1021 3.96801 17.4747 3.95658L17.4748 3.95664ZM10.4511 6.51484C10.3891 6.63145 10.0359 11.3847 9.84158 12.3119C8.70504 12.8819 5.63572 13.5467 5.51033 12.7207C5.72232 11.7449 7.68416 8.5024 10.4512 6.51479L10.4511 6.51484ZM26.7458 8.05281C26.8157 8.2446 26.8749 8.44014 26.9231 8.63852C27.1692 9.65805 27.0834 10.743 26.5223 11.7401C25.9164 12.8167 25.1742 13.646 23.721 14.4387C22.2679 15.2315 20.0999 16.0374 16.4653 17.2541C14.3044 17.9775 12.0221 20.8806 9.8185 23.29C8.7167 24.4947 7.62609 25.5756 6.44789 26.1778C6.10248 26.3544 5.74184 26.4827 5.37434 26.5538C5.55188 26.6552 5.73428 26.7494 5.91135 26.8309C6.38689 27.0497 6.8809 27.163 6.91898 27.164C7.74146 27.126 8.62289 26.6762 9.54492 25.9322C10.4719 25.1843 11.4236 24.1577 12.3863 23.0801C14.3117 20.9247 16.2385 18.5377 18.5061 17.7786C22.1282 16.5661 24.2875 15.7701 25.6232 15.0515C26.9588 14.3329 27.463 13.7487 27.9695 12.7647C28.5398 11.6566 28.5697 10.8747 28.2335 10.053C27.9798 9.43287 27.4737 8.77973 26.7458 8.05287L26.7458 8.05281ZM8.31533 13.6465C10.3052 13.6354 12.3636 14.628 14.4494 15.7613C10.2741 17.9479 6.13553 26.3273 3.48457 23.6123C2.41781 22.4342 2.34592 16.5945 5.251 14.6144C6.24961 13.9337 7.27307 13.6524 8.31527 13.6465H8.31533ZM6.17883 17.9363C5.86031 17.9424 5.53898 18.0401 5.31516 18.2168C4.59211 18.7883 4.0425 20.2175 4.65855 20.903C5.24783 21.5587 6.73629 21.2438 7.27934 20.5507C7.76344 19.9329 7.61273 18.7292 7.02621 18.2058C6.8134 18.016 6.49752 17.9304 6.17895 17.9363L6.17883 17.9363Z" fill="#F72D57"/>
</svg>
