<svg width="20" height="20" viewBox="0 0 20 20" fill="none" xmlns="http://www.w3.org/2000/svg">
<path d="M17.5834 12.3955L10.5834 19.4163C10.5 19.4997 10.4097 19.5586 10.3125 19.593C10.2153 19.628 10.1111 19.6455 10 19.6455C9.88891 19.6455 9.78474 19.628 9.68752 19.593C9.5903 19.5586 9.50002 19.4997 9.41669 19.4163L2.39585 12.3955C2.20141 12.2011 2.10419 11.958 2.10419 11.6663C2.10419 11.3747 2.20835 11.1247 2.41669 10.9163C2.62502 10.708 2.86808 10.6038 3.14585 10.6038C3.42363 10.6038 3.66669 10.708 3.87502 10.9163L10 17.0413L16.125 10.9163C16.3195 10.7219 16.5589 10.6247 16.8434 10.6247C17.1284 10.6247 17.375 10.7288 17.5834 10.9372C17.7917 11.1455 17.8959 11.3886 17.8959 11.6663C17.8959 11.9441 17.7917 12.1872 17.5834 12.3955V12.3955Z" fill="#F72D57"/>
</svg>
