<svg width="30" height="30" viewBox="0 0 30 30" fill="none" xmlns="http://www.w3.org/2000/svg">
<path d="M5 15V11.25C5 14 9.5 16.25 15 16.25C20.5 16.25 25 14 25 11.25V15C25 15.625 24.75 16.125 24.375 16.75C23.375 16.375 22.375 16.25 21.25 16.25C18.125 16.25 15.125 17.625 13.25 19.875C8.5 19.5 5 17.5 5 15ZM15 13.75C20.5 13.75 25 11.5 25 8.75C25 6 20.5 3.75 15 3.75C9.5 3.75 5 6 5 8.75C5 11.5 9.5 13.75 15 13.75ZM11.375 24.625L11 23.75L11.375 22.875C11.5 22.625 11.625 22.5 11.625 22.25C7.75 21.5 5 19.75 5 17.5V21.25C5 23.5 8 25.375 12.125 26C11.875 25.625 11.625 25.125 11.375 24.625ZM21.25 22.5C20.5 22.5 20 23 20 23.75C20 24.5 20.5 25 21.25 25C22 25 22.5 24.5 22.5 23.75C22.5 23 22 22.5 21.25 22.5ZM28.75 23.75C27.625 26.625 24.625 28.75 21.25 28.75C17.875 28.75 14.875 26.625 13.75 23.75C14.875 20.875 17.875 18.75 21.25 18.75C24.625 18.75 27.625 20.875 28.75 23.75ZM24.375 23.75C24.375 22 23 20.625 21.25 20.625C19.5 20.625 18.125 22 18.125 23.75C18.125 25.5 19.5 26.875 21.25 26.875C23 26.875 24.375 25.5 24.375 23.75Z" fill="#F72D57"/>
</svg>
