<svg width="30" height="30" viewBox="0 0 30 30" fill="none" xmlns="http://www.w3.org/2000/svg">
<path d="M6.79999 9.95L7.44999 9.2875C8.17499 8.5625 9.37499 8.5625 10.125 9.3375L10.15 9.375C10.7625 10 11.575 10.3 12.4625 10.3875C13.675 10.5 14.85 11.15 15.625 12.325C16.475 13.675 16.4625 15.475 15.575 16.8125C15.2402 17.3419 14.7901 17.7886 14.2582 18.1194C13.7264 18.4501 13.1266 18.6563 12.5038 18.7224C11.881 18.7885 11.2513 18.7129 10.6618 18.5012C10.0724 18.2895 9.53843 17.9473 9.09999 17.5C8.39999 16.8125 7.99999 15.925 7.89999 15C7.79999 14.0875 7.43749 13.225 6.79999 12.5875C6.07499 11.875 6.07499 10.675 6.79999 9.95M12.05 20C10.5875 20 9.22499 19.4375 8.21249 18.4C7.33749 17.5 6.78749 16.375 6.64999 15.15C6.61249 14.775 6.49999 14.2875 6.19999 13.8375C5.44999 14.875 4.99999 16.125 4.99999 17.5C4.99999 19.55 5.99999 21.3625 7.53749 22.5H23.75V21.25C23.75 16.75 20.7625 12.9375 16.675 11.6875C17.7875 13.4375 17.7625 15.775 16.625 17.5C15.625 19.0625 13.9 20 12.05 20ZM18.475 9.45H20.0625C21.15 9.45 22.1 10.2125 22.1 11.575V12.5H23.6625V11.25C23.6625 9.375 22 7.95 20.0625 7.95H18.475C17.4375 7.95 16.55 6.925 16.55 5.875C16.55 4.825 17.4375 4.05 18.475 4.05V2.5C16.55 2.5 15 4.05 15 5.975C15 7.9 16.55 9.45 18.475 9.45M5.62499 9.4375C5.69999 9.3125 5.79999 9.1875 5.91249 9.0625L6.56249 8.4125C6.67499 8.3 6.79999 8.2125 6.92499 8.125L5.16249 6.3375C5.33749 6 5.27499 5.5625 4.99999 5.275C4.82099 5.10075 4.58104 5.00325 4.33124 5.00325C4.08143 5.00325 3.84149 5.10075 3.66249 5.275C3.48749 5.45 3.39999 5.6625 3.38749 5.8875C3.16249 5.9 2.94999 5.9875 2.77499 6.1625C2.41249 6.525 2.41249 7.125 2.77499 7.5C3.06249 7.775 3.48749 7.8375 3.83749 7.6625L5.62499 9.4375ZM22.9875 5.4875C23.625 4.85 24.025 3.9875 24.025 3.025H22.4625C22.4625 4.0625 21.5875 4.9375 20.55 4.9375V6.4875C22.875 6.4875 24.7 8.3875 24.7 10.7125V13.75H26.25V10.7125C26.2562 9.62214 25.953 8.55238 25.3755 7.62748C24.798 6.70259 23.9699 5.96053 22.9875 5.4875M6.24999 26.25H23.75C25.1375 26.25 26.25 25.1375 26.25 23.75H3.74999C3.74999 24.413 4.01338 25.0489 4.48222 25.5178C4.95106 25.9866 5.58695 26.25 6.24999 26.25Z" fill="#F72D57"/>
</svg>
