<svg width="30" height="30" viewBox="0 0 30 30" fill="none" xmlns="http://www.w3.org/2000/svg">
<path d="M5 3.75C3.6125 3.75 2.5 4.8625 2.5 6.25V11.25C2.5 12.6375 3.6125 13.75 5 13.75H10C11.3875 13.75 12.5 12.6375 12.5 11.25V6.25C12.5 4.8625 11.3875 3.75 10 3.75M10.25 5.625L11.575 6.9375L6.5875 11.875L3.425 8.6875L4.7625 7.375L6.6 9.2375M5 16.25C3.6125 16.25 2.5 17.3625 2.5 18.75V23.75C2.5 25.1375 3.6125 26.25 5 26.25H10C11.3875 26.25 12.5 25.1375 12.5 23.75V18.75C12.5 17.3625 11.3875 16.25 10 16.25M5 18.75H10V23.75H5M15 6.25H27.5V8.75H15M15 23.75V21.25H27.5V23.75M15 13.75H27.5V16.25H15V13.75Z" fill="#F72D57"/>
</svg>
