<svg width="35" height="28" viewBox="0 0 35 28" fill="none" xmlns="http://www.w3.org/2000/svg">
<path d="M2.91663 2.10449H32.0833M2.91663 13.7712H10.9375M2.91663 25.4378H10.9375M26.9791 20.3337L32.0833 25.4743M22.9687 21.792C24.6125 21.792 26.189 21.139 27.3513 19.9767C28.5136 18.8143 29.1666 17.2379 29.1666 15.5941C29.1666 13.9503 28.5136 12.3738 27.3513 11.2115C26.189 10.0492 24.6125 9.39616 22.9687 9.39616C21.3249 9.39616 19.7485 10.0492 18.5861 11.2115C17.4238 12.3738 16.7708 13.9503 16.7708 15.5941C16.7708 17.2379 17.4238 18.8143 18.5861 19.9767C19.7485 21.139 21.3249 21.792 22.9687 21.792Z" stroke="#F72D57" stroke-width="4" stroke-linecap="round"/>
</svg>
